<svg width="48" height="48" viewBox="0 0 48 48" fill="none" xmlns="http://www.w3.org/2000/svg">
<path d="M18.0577 3.84375L17.6475 5.15625H30.3523L29.9422 3.84375H18.0577ZM17.3438 6.84375V13.6971C21.7492 14.2904 26.183 14.3064 30.6562 13.6978V6.84375H17.3438ZM9.48966 9.84375L4.45387 18.6562H43.5461L38.5103 9.84375H32.3438V10.2764C32.4436 10.2939 32.5438 10.3116 32.6408 10.3298C33.7648 10.5405 34.6875 10.7874 35.3989 11.1028C35.7546 11.2604 36.061 11.4314 36.3263 11.6744C36.5916 11.9175 36.8438 12.2907 36.8438 12.75C36.8438 13.2094 36.5916 13.5825 36.3263 13.8256C36.061 14.0686 35.7546 14.2395 35.3989 14.3972C34.6875 14.7126 33.7648 14.9595 32.6408 15.1702C30.3928 15.5917 27.3564 15.8438 24 15.8438L23.9662 15.8436C20.6232 15.8419 17.5996 15.5904 15.3593 15.1702C14.2352 14.9595 13.3125 14.7126 12.6011 14.3972C12.2454 14.2395 11.939 14.0686 11.6737 13.8256C11.4084 13.5825 11.1562 13.2093 11.1562 12.75C11.1562 12.2906 11.4084 11.9175 11.6737 11.6744C11.939 11.4314 12.2454 11.2604 12.6011 11.1028C13.3125 10.7874 14.2352 10.5405 15.3593 10.3298C15.4581 10.3114 15.5571 10.2936 15.6562 10.2764V9.84375H9.48966ZM15.6562 11.991C14.6153 12.1869 13.7859 12.4237 13.285 12.6457C13.1888 12.6883 13.1744 12.7108 13.1048 12.75C13.1744 12.7892 13.1888 12.8117 13.285 12.8543C13.7858 13.0763 14.6153 13.3131 15.6562 13.509V11.991ZM32.3438 11.991V13.509C33.3847 13.3131 34.2141 13.0763 34.715 12.8543C34.8112 12.8117 34.8256 12.7892 34.8952 12.75C34.8256 12.7108 34.8112 12.6883 34.715 12.6457C34.2142 12.4237 33.3847 12.1869 32.3438 11.991ZM9 15.6562H15V17.3438H9V15.6562ZM33 15.6562H39V17.3438H33V15.6562ZM3.84375 20.3438V29.1562H10.208C10.9627 30.4164 11.893 31.64 13.1227 32.2547C18.0175 34.7022 25.7876 34.0401 32.3967 33.5768C35.7012 33.3452 38.7152 33.1439 40.8045 33.3087C41.8492 33.3911 42.6572 33.5787 43.1004 33.8093C43.5437 34.04 43.6201 34.1553 43.6239 34.5092C43.6331 35.3536 43.4396 35.761 43.1423 36.0415C42.8448 36.3221 42.3268 36.5252 41.5324 36.5992C39.9434 36.747 37.4377 36.3326 34.5824 35.8916C29.2258 35.0642 22.4701 34.1684 17.044 37.5938H21.1049C25.31 36.3097 30.1092 36.9082 34.3248 37.5593C37.1598 37.9972 39.6824 38.466 41.6888 38.2793C42.6919 38.186 43.6132 37.9174 44.3003 37.2691C44.9875 36.6208 45.3237 35.6423 45.3112 34.4908C45.301 33.5432 44.6803 32.7292 43.8794 32.3124C43.0784 31.8957 42.0952 31.7179 40.9371 31.6266C38.621 31.4438 35.5841 31.6618 32.2788 31.8935C25.668 32.3569 17.9825 32.7978 13.8773 30.7452C13.4058 30.5094 12.8289 29.9044 12.273 29.1562H44.1562V20.3438H3.84375ZM5.15625 21.6562H12.8438V27.8438H11.4043C11.2951 27.6593 11.1897 27.4726 11.0881 27.2838C10.8892 26.9128 10.6997 26.5368 10.5198 26.1562H11.1562V23.3438H6.84375V26.1562H8.66419C8.91678 26.7275 9.18798 27.2903 9.47738 27.8438H5.15625V22.5V21.6562ZM15.2032 21.6562H22.8908V27.8438H15.2032V22.5V21.6562ZM25.1963 21.6562H32.8838V27.8438H25.1963V22.5V21.6562ZM35.1562 21.6562H42.8438V27.8438H35.1562V22.5V21.6562ZM16.8907 23.3438V26.1562H21.2033V23.3438H16.8907ZM26.8838 23.3438V26.1562H31.1963V23.3438H26.8838ZM36.8438 23.3438V26.1562H41.1562V23.3438H36.8438ZM10.3125 39.2812C9.94922 39.2812 9.67884 39.4867 9.38419 40.0946C9.08944 40.7025 8.90625 41.6334 8.90625 42.5625C8.90625 43.4916 9.08944 44.4225 9.38419 45.0304C9.67875 45.6383 9.94922 45.8438 10.3125 45.8438H23.8125C24.1758 45.8438 24.4462 45.6383 24.7408 45.0304C25.0356 44.4225 25.2188 43.4916 25.2188 42.5625C25.2188 41.6334 25.0356 40.7025 24.7408 40.0946C24.4463 39.4867 24.1758 39.2812 23.8125 39.2812H10.3125ZM21.3848 40.2188C21.6085 40.2188 21.8231 40.3076 21.9814 40.4659C22.1396 40.6241 22.2285 40.8387 22.2285 41.0625C22.2285 41.2863 22.1396 41.5009 21.9814 41.6591C21.8231 41.8174 21.6085 41.9062 21.3848 41.9062C21.161 41.9062 20.9464 41.8174 20.7881 41.6591C20.6299 41.5009 20.541 41.2863 20.541 41.0625C20.541 40.8387 20.6299 40.6241 20.7881 40.4659C20.9464 40.3076 21.161 40.2188 21.3848 40.2188ZM11.7188 40.5H13.4062V41.7188H14.625V43.4062H13.4062V44.625H11.7188V43.4062H10.5V41.7188H11.7188V40.5ZM19.8848 41.7188C20.1085 41.7188 20.3231 41.8076 20.4814 41.9659C20.6396 42.1241 20.7285 42.3387 20.7285 42.5625C20.7285 42.7863 20.6396 43.0009 20.4814 43.1591C20.3231 43.3174 20.1085 43.4062 19.8848 43.4062C19.661 43.4062 19.4464 43.3174 19.2881 43.1591C19.1299 43.0009 19.041 42.7863 19.041 42.5625C19.041 42.3387 19.1299 42.1241 19.2881 41.9659C19.4464 41.8076 19.661 41.7188 19.8848 41.7188ZM22.8848 41.7188C23.1085 41.7188 23.3231 41.8076 23.4814 41.9659C23.6396 42.1241 23.7285 42.3387 23.7285 42.5625C23.7285 42.7863 23.6396 43.0009 23.4814 43.1591C23.3231 43.3174 23.1085 43.4062 22.8848 43.4062C22.661 43.4062 22.4464 43.3174 22.2881 43.1591C22.1299 43.0009 22.041 42.7863 22.041 42.5625C22.041 42.3387 22.1299 42.1241 22.2881 41.9659C22.4464 41.8076 22.661 41.7188 22.8848 41.7188ZM21.3848 42.9972C21.6085 42.9972 21.8231 43.0861 21.9814 43.2443C22.1396 43.4026 22.2285 43.6172 22.2285 43.841C22.2285 44.0647 22.1396 44.2794 21.9814 44.4376C21.8231 44.5958 21.6085 44.6847 21.3848 44.6847C21.161 44.6847 20.9464 44.5958 20.7881 44.4376C20.6299 44.2794 20.541 44.0647 20.541 43.841C20.541 43.6172 20.6299 43.4026 20.7881 43.2443C20.9464 43.0861 21.161 42.9972 21.3848 42.9972Z" fill="black"/>
</svg>
